<svg width="462.5" height="357" viewBox="0 0 462.5 357" xmlns="http://www.w3.org/2000/svg"><g id="svgGroup" stroke-linecap="round" fill-rule="evenodd" font-size="9pt" stroke="#000" stroke-width="0.25mm" fill="none" style="stroke:#000;stroke-width:0.25mm;fill:none"><path d="M 179 129 L 179 121 L 179 16 L 120 16 L 120 42 L 114 42 L 114 16 L 12 16 L 12 121 L 0 121 L 0 357 L 179 357 L 179 177 M 455 117 L 462.5 117 L 462.5 357 L 324.5 357 L 324.5 174 L 297.5 174 L 297.5 168 L 297.5 134 L 297.5 117 L 324 117 M 180.5 357 L 180.5 178 L 226.5 178 L 226.5 206 L 314.5 206 L 314.5 357 L 180.5 357 Z M 357.75 105 L 398.5 105 L 398.5 0 L 297.5 0 L 297.5 105 L 324 105 L 358 105 L 358 71 A 34 34 0 0 0 324 105 M 454.25 117 L 430.25 117 A 24 24 0 0 0 454.25 141 L 454.25 117 L 454.25 114 L 462 114 L 462 0 L 404 0 L 404 114 L 406.25 114 L 406.25 117 L 430.25 117 A 24 24 0 0 1 406.25 141 L 406.25 117 M 219 115 L 215 115 L 215 0 L 280 0 L 280 95 L 258 95 L 258 115 L 253 115 L 219 115 Z M 12 121 L 120 121 L 120 83 L 12 83 L 12 121 Z M 12 16 L 114 16 L 114 39 L 12 39 L 12 16 Z M 253 115 A 34 34 0 0 0 219 81 L 219 115 L 253 115 Z M 185 178 L 219 178 A 34 34 0 0 1 185 212 L 185 178 Z M 297.5 168 L 331.5 168 A 34 34 0 0 0 297.5 134 M 407 117 358 117" vector-effect="non-scaling-stroke"/><g id="captions"><text alignment-baseline="middle" text-anchor="middle" transform="rotate(0,433,70.5)" x="433" y="70.5">C: 4'10&quot; x 11'9&quot;</text><text alignment-baseline="middle" text-anchor="middle" transform="rotate(0,89.5,68.5)" x="89.5" y="68.5">KT: 14'11&quot; x 8'9&quot;</text><text alignment-baseline="middle" text-anchor="middle" transform="rotate(0,247.5,267.5)" x="247.5" y="267.5">CFR: 11'2&quot; x 14'11&quot;</text><text alignment-baseline="middle" text-anchor="middle" transform="rotate(0,380,237)" x="380" y="237">BED: 13'9&quot; x 20'0&quot;</text><text alignment-baseline="middle" text-anchor="middle" transform="rotate(0,348,52.5)" x="348" y="52.5">BTH2: 8'5&quot; x 8'9&quot;</text><text alignment-baseline="middle" text-anchor="middle" transform="rotate(0,247.5,57.5)" x="247.5" y="57.5">BTH1: 5'5&quot; x 9'7&quot;</text><text alignment-baseline="middle" text-anchor="middle" transform="rotate(0,89.5,239)" x="89.5" y="239">LVRM: 14'11&quot; x 19'8&quot;</text></g></g></svg>