<svg width="462.5in" height="357in" viewBox="0 0 462.5 357" xmlns="http://www.w3.org/2000/svg"><g id="svgGroup" stroke-linecap="round" fill-rule="evenodd" font-size="9pt" stroke="#000" stroke-width="0.25mm" fill="none" style="stroke:#000;stroke-width:0.25mm;fill:none"><path d="M 0 357 L 0 16 L 179 16 L 179 357 L 0 357 Z M 455 117 L 462.5 117 L 462.5 357 L 324.5 357 L 324.5 174 L 297.5 174 L 297.5 168 L 297.5 134 L 297.5 117 L 324 117 M 180.5 357 L 180.5 178 L 226.5 178 L 226.5 206 L 314.5 206 L 314.5 357 L 180.5 357 Z M 357.75 105 L 398.5 105 L 398.5 0 L 297.5 0 L 297.5 105 L 324 105 L 358 105 L 358 71 A 34 34 0 0 0 324 105 M 454.25 117 L 430.25 117 A 24 24 0 0 0 454.25 141 L 454.25 117 L 454.25 114 L 462 114 L 462 0 L 404 0 L 404 114 L 406.25 114 L 406.25 117 L 430.25 117 A 24 24 0 0 1 406.25 141 L 406.25 117 M 219 115 L 215 115 L 215 0 L 280 0 L 280 95 L 258 95 L 258 115 L 253 115 L 219 115 Z M 297.5 134 L 297.5 168 A 34 34 0 0 0 331.5 134 L 297.5 134 Z M 253 115 A 34 34 0 0 0 219 81 L 219 115 L 253 115 Z M 185 178 L 219 178 A 34 34 0 0 1 185 212 L 185 178 Z M 407 117 358 117" vector-effect="non-scaling-stroke"/></g></svg>